%
M48
M72
T01C0.0150
T02C0.0200
T03C0.0276
T04C0.0354
T05C0.0610
%
T01
X10419Y7326
X10735Y7008
X11174Y6791
X11243Y7580
X13813Y6970
X14678Y8464
X13993Y8791
X14843Y9500
X15276Y9093
X15532Y9468
X15203Y10220
X14843Y11720
X15529Y11806
X16523Y12680
X17289Y12185
X15503Y14000
X15503Y14600
X15323Y15140
X14573Y15140
X13583Y16730
X13583Y17420
X12900Y18716
X13883Y19700
X14163Y20020
X14903Y20480
X16223Y19640
X14920Y18664
X15323Y18140
X15863Y17900
X16013Y17000
X16463Y16100
X16888Y16096
X16788Y15476
X17645Y14522
X18443Y14120
X20398Y14205
X20518Y14875
X20783Y13220
X20543Y12740
X20553Y10750
X19631Y8733
X18803Y8840
X20123Y7880
X20603Y7880
X21083Y7880
X18753Y6970
X15683Y8600
X11603Y12260
X11663Y13340
X11603Y14000
X12638Y14345
X13043Y13880
X12678Y14775
X13343Y12800
X17367Y17956
X19823Y17300
X12803Y20570
X11273Y20270
X11723Y18740
T02
X10153Y19120
X10153Y18120
X10153Y17120
X10153Y16120
X10153Y15120
X10153Y14120
X10153Y20120
X11103Y21370
X12103Y21370
X13103Y21370
X14103Y21370
X15103Y21370
X16103Y21370
X17103Y21370
X18103Y21370
X19103Y21370
X20103Y21370
X21103Y21370
X22053Y21120
X22053Y20120
X22053Y19120
X22053Y18120
X22053Y17120
X22053Y16120
X22053Y15120
X22053Y14120
T03
X10403Y10460
T04
X20613Y9614
X20613Y11346
T05
X20914Y22955
X11387Y22955
M30
