G75*
G70*
%OFA0B0*%
%FSLAX24Y24*%
%IPPOS*%
%LPD*%
%AMOC8*
5,1,8,0,0,1.08239X$1,22.5*
%
%ADD10R,0.0493X0.0694*%
%ADD11R,0.0552X0.0867*%
%ADD12C,0.0690*%
%ADD13R,0.0356X0.0434*%
%ADD14R,0.0395X0.0434*%
%ADD15R,0.0395X0.0552*%
%ADD16R,0.0592X0.0434*%
%ADD17R,0.0277X0.0178*%
%ADD18R,0.0434X0.0710*%
%ADD19R,0.0867X0.0552*%
%ADD20R,0.1064X0.0277*%
%ADD21R,0.1064X0.0867*%
%ADD22C,0.0434*%
%ADD23R,0.0434X0.0395*%
%ADD24R,0.1780X0.0680*%
%ADD25R,0.0297X0.0552*%
%ADD26R,0.0434X0.0356*%
%ADD27R,0.0513X0.0474*%
%ADD28C,0.0556*%
D10*
X012454Y013360D03*
X013438Y013360D03*
X014422Y013360D03*
X015111Y013360D03*
X015702Y013360D03*
X016391Y013360D03*
X017375Y013360D03*
X018359Y013360D03*
X019312Y013360D03*
X019981Y013360D03*
X021300Y013360D03*
D11*
X021930Y022128D03*
X010277Y021655D03*
D12*
X011387Y022955D03*
X020914Y022955D03*
D13*
X018319Y012440D03*
X017807Y012440D03*
X013759Y008070D03*
X013247Y008070D03*
X012719Y008660D03*
X012207Y008660D03*
D14*
X017749Y011834D03*
X018497Y011834D03*
X018123Y011007D03*
D15*
X012618Y007900D03*
X011909Y007900D03*
D16*
X016623Y010242D03*
X016623Y011738D03*
D17*
X016609Y009775D03*
X016609Y009578D03*
X016609Y009382D03*
X016609Y009185D03*
X017357Y009185D03*
X017357Y009382D03*
X017357Y009578D03*
X017357Y009775D03*
D18*
X016983Y009480D03*
D19*
X015123Y011150D03*
X013993Y011160D03*
X013993Y012420D03*
X015123Y012410D03*
D20*
X019629Y011110D03*
X019629Y010795D03*
X019629Y010480D03*
X019629Y010165D03*
X019629Y009850D03*
D21*
X019629Y008708D03*
X021794Y008708D03*
X021794Y012252D03*
X019629Y012252D03*
D22*
X020613Y011346D03*
X020613Y009614D03*
D23*
X010530Y007926D03*
X011356Y008300D03*
X010530Y008674D03*
D24*
X012063Y010460D03*
X012063Y011460D03*
D25*
X013509Y010332D03*
X013883Y010332D03*
X014257Y010332D03*
X014257Y009308D03*
X013509Y009308D03*
D26*
X016003Y012124D03*
X016003Y012636D03*
D27*
X017809Y010310D03*
X018478Y010310D03*
D28*
X010403Y010460D03*
M02*
