G75*
G70*
%OFA0B0*%
%FSLAX24Y24*%
%IPPOS*%
%LPD*%
%AMOC8*
5,1,8,0,0,1.08239X$1,22.5*
%
%ADD10R,0.0413X0.0614*%
%ADD11R,0.0472X0.0787*%
%ADD12R,0.0276X0.0354*%
%ADD13R,0.0315X0.0354*%
%ADD14R,0.0315X0.0472*%
%ADD15R,0.0512X0.0354*%
%ADD16R,0.0197X0.0098*%
%ADD17R,0.0354X0.0630*%
%ADD18R,0.0787X0.0472*%
%ADD19R,0.0984X0.0197*%
%ADD20R,0.0984X0.0787*%
%ADD21R,0.0354X0.0315*%
%ADD22R,0.1700X0.0600*%
%ADD23R,0.0217X0.0472*%
%ADD24R,0.0354X0.0276*%
%ADD25R,0.0433X0.0394*%
%ADD26C,0.0300*%
%ADD27C,0.0400*%
%ADD28C,0.0060*%
%ADD29C,0.0476*%
%ADD30C,0.0350*%
%ADD31C,0.0120*%
%ADD32C,0.0500*%
%ADD33C,0.0160*%
%ADD34C,0.0100*%
%ADD35C,0.0320*%
D10*
X012454Y013360D03*
X013438Y013360D03*
X014422Y013360D03*
X015111Y013360D03*
X015702Y013360D03*
X016391Y013360D03*
X017375Y013360D03*
X018359Y013360D03*
X019312Y013360D03*
X019981Y013360D03*
X021300Y013360D03*
D11*
X021930Y022128D03*
X010277Y021655D03*
D12*
X017807Y012440D03*
X018319Y012440D03*
X013759Y008070D03*
X013247Y008070D03*
X012719Y008660D03*
X012207Y008660D03*
D13*
X017749Y011834D03*
X018497Y011834D03*
X018123Y011007D03*
D14*
X012618Y007900D03*
X011909Y007900D03*
D15*
X016623Y010242D03*
X016623Y011738D03*
D16*
X016609Y009775D03*
X016609Y009578D03*
X016609Y009382D03*
X016609Y009185D03*
X017357Y009185D03*
X017357Y009382D03*
X017357Y009578D03*
X017357Y009775D03*
D17*
X016983Y009480D03*
D18*
X015123Y011150D03*
X013993Y011160D03*
X013993Y012420D03*
X015123Y012410D03*
D19*
X019629Y011110D03*
X019629Y010795D03*
X019629Y010480D03*
X019629Y010165D03*
X019629Y009850D03*
D20*
X019629Y008708D03*
X021794Y008708D03*
X021794Y012252D03*
X019629Y012252D03*
D21*
X011356Y008300D03*
X010530Y008674D03*
X010530Y007926D03*
D22*
X012063Y010460D03*
X012063Y011460D03*
D23*
X013509Y010332D03*
X013883Y010332D03*
X014257Y010332D03*
X014257Y009308D03*
X013509Y009308D03*
D24*
X016003Y012124D03*
X016003Y012636D03*
D25*
X017809Y010310D03*
X018478Y010310D03*
D26*
X022083Y021120D02*
X021930Y021447D01*
X021930Y022128D01*
D27*
X021103Y021370D03*
X022053Y021120D03*
X022053Y020120D03*
X022053Y019120D03*
X022053Y018120D03*
X022053Y017120D03*
X022053Y016120D03*
X022053Y015120D03*
X022053Y014120D03*
X020103Y021370D03*
X019103Y021370D03*
X018103Y021370D03*
X017103Y021370D03*
X016103Y021370D03*
X015103Y021370D03*
X014103Y021370D03*
X013103Y021370D03*
X012103Y021370D03*
X011103Y021370D03*
X010153Y020120D03*
X010153Y019120D03*
X010153Y018120D03*
X010153Y017120D03*
X010153Y016120D03*
X010153Y015120D03*
X010153Y014120D03*
D28*
X013438Y013375D02*
X013463Y013280D01*
X013438Y013360D02*
X013438Y013375D01*
X015659Y013318D02*
X015702Y013360D01*
X017363Y013340D02*
X017375Y013360D01*
X018359Y013360D02*
X018383Y013336D01*
X018319Y012440D02*
X018323Y012316D01*
X017807Y012440D02*
X017783Y012296D01*
X019629Y011110D02*
X020003Y011120D01*
X018803Y008840D02*
X018803Y007840D01*
X018663Y007700D01*
X016283Y007700D01*
X015653Y008330D01*
X015653Y008510D01*
X015683Y008600D01*
X015383Y008780D02*
X015383Y008420D01*
X016223Y007580D01*
X019823Y007580D01*
X020123Y007880D01*
X020063Y007900D01*
X020183Y007460D02*
X020603Y007880D01*
X021083Y007880D02*
X020543Y007340D01*
X016103Y007340D01*
X014963Y008480D01*
X014663Y008480D01*
X014678Y008464D01*
X014393Y008600D02*
X014393Y008270D01*
X014603Y008060D01*
X014603Y007700D01*
X014183Y007280D01*
X013583Y007280D01*
X013463Y007160D01*
X011543Y007160D01*
X011174Y006791D01*
X010735Y007008D02*
X011006Y007280D01*
X013403Y007280D01*
X013523Y007400D01*
X014123Y007400D01*
X014483Y007760D01*
X014483Y008000D01*
X014273Y008210D01*
X014273Y008660D01*
X014513Y008900D01*
X014903Y008900D01*
X014963Y008960D01*
X014963Y009200D01*
X015143Y009380D01*
X015443Y009380D01*
X015532Y009468D01*
X015563Y009500D01*
X015563Y008960D01*
X015383Y008780D01*
X015263Y008900D02*
X015263Y008360D01*
X014843Y008780D01*
X014573Y008780D01*
X014393Y008600D01*
X015263Y008360D02*
X016163Y007460D01*
X020183Y007460D01*
X015263Y008900D02*
X015276Y009093D01*
X012618Y007900D02*
X012623Y007864D01*
D29*
X010403Y010460D03*
D30*
X011603Y012260D03*
X011663Y013340D03*
X011603Y014000D03*
X012638Y014345D03*
X013043Y013880D03*
X012678Y014775D03*
X014573Y015140D03*
X015323Y015140D03*
X015503Y014600D03*
X015503Y014000D03*
X016523Y012680D03*
X017289Y012185D03*
X015529Y011806D03*
X014843Y011720D03*
X013343Y012800D03*
X015203Y010220D03*
X014843Y009500D03*
X015276Y009093D03*
X015532Y009468D03*
X015683Y008600D03*
X014678Y008464D03*
X013993Y008791D03*
X013813Y006970D03*
X011243Y007580D03*
X010735Y007008D03*
X010419Y007326D03*
X011174Y006791D03*
X018753Y006970D03*
X020123Y007880D03*
X020603Y007880D03*
X021083Y007880D03*
X019631Y008733D03*
X018803Y008840D03*
X020553Y010750D03*
X020543Y012740D03*
X020783Y013220D03*
X020398Y014205D03*
X020518Y014875D03*
X018443Y014120D03*
X017645Y014522D03*
X016788Y015476D03*
X016888Y016096D03*
X016463Y016100D03*
X016013Y017000D03*
X015863Y017900D03*
X015323Y018140D03*
X014920Y018664D03*
X013883Y019700D03*
X014163Y020020D03*
X014903Y020480D03*
X016223Y019640D03*
X017367Y017956D03*
X019823Y017300D03*
X013583Y017420D03*
X013583Y016730D03*
X012900Y018716D03*
X011723Y018740D03*
X011273Y020270D03*
X012803Y020570D03*
D31*
X013883Y020480D02*
X014903Y020480D01*
X015383Y019640D02*
X016223Y019640D01*
X015383Y019640D02*
X013973Y018230D01*
X013973Y014930D01*
X014183Y014720D01*
X014183Y014120D01*
X014003Y013940D01*
X013703Y013940D01*
X013463Y013700D01*
X013463Y013280D01*
X013343Y012800D02*
X013763Y012800D01*
X013883Y012680D01*
X013883Y012410D01*
X013993Y012420D01*
X014843Y011720D02*
X015023Y011720D01*
X015123Y011620D01*
X015123Y011150D01*
X015529Y011806D02*
X015375Y011960D01*
X015233Y011960D01*
X015123Y012070D01*
X015123Y012410D01*
X015683Y012920D02*
X015683Y013342D01*
X015683Y012920D02*
X015823Y012780D01*
X016003Y012636D01*
X016523Y012680D02*
X017603Y012680D01*
X017807Y012476D01*
X017807Y012440D01*
X017783Y012296D02*
X017783Y012050D01*
X017779Y011836D01*
X017749Y011834D01*
X018323Y012230D02*
X018323Y012316D01*
X018323Y012230D02*
X018497Y012056D01*
X018497Y011834D01*
X018319Y012440D02*
X018319Y012856D01*
X018383Y012920D01*
X018383Y013336D01*
X019312Y013360D02*
X019312Y013071D01*
X019553Y012830D01*
X020453Y012830D01*
X020543Y012740D01*
X020783Y013220D02*
X020643Y013360D01*
X019981Y013360D01*
X020003Y011120D02*
X020183Y011120D01*
X020553Y010750D01*
X017363Y013340D02*
X017363Y014240D01*
X017645Y014522D01*
X016391Y014193D02*
X016391Y013360D01*
X016391Y014193D02*
X015983Y014600D01*
X015503Y014600D01*
X015323Y015140D02*
X014573Y015140D01*
X014422Y014811D02*
X014213Y015020D01*
X014213Y017960D01*
X014393Y018140D01*
X015323Y018140D01*
X016013Y017000D02*
X016283Y017000D01*
X016463Y016820D01*
X016463Y016100D01*
X014422Y014811D02*
X014422Y013360D01*
X015111Y013360D02*
X015111Y013852D01*
X015263Y014000D01*
X015503Y014000D01*
X013583Y016730D02*
X013583Y017420D01*
X012143Y018740D02*
X013883Y020480D01*
X012143Y018740D02*
X011723Y018740D01*
X014021Y009278D02*
X013643Y008900D01*
X013643Y008600D01*
X013759Y008484D01*
X013759Y008070D01*
X014093Y008390D02*
X014093Y007730D01*
X013943Y007580D01*
X013433Y007580D01*
X013247Y007766D01*
X013247Y008070D01*
X013247Y008370D01*
X013227Y008390D01*
X013013Y008390D01*
X012923Y008300D01*
X012203Y008300D01*
X012207Y008416D01*
X012207Y008660D01*
X012203Y008596D01*
X012203Y008300D01*
X012023Y008300D01*
X011909Y008186D01*
X011909Y007900D01*
X011483Y007580D02*
X011603Y007460D01*
X012503Y007460D01*
X012623Y007580D01*
X012623Y007864D01*
X012613Y007870D02*
X012593Y007880D01*
X012613Y007870D02*
X012618Y007900D01*
X013813Y006970D02*
X018753Y006970D01*
X014273Y009290D02*
X014261Y009278D01*
X014021Y009278D01*
X014257Y009308D02*
X014273Y009290D01*
X013993Y008791D02*
X013993Y008491D01*
X014093Y008390D01*
X011483Y007580D02*
X011243Y007580D01*
X010523Y007610D02*
X010469Y007550D01*
X010419Y007500D01*
X010419Y007326D01*
X010523Y007610D02*
X010523Y007920D01*
X010530Y007926D01*
X010530Y008674D02*
X010574Y008690D01*
D32*
X011103Y021370D02*
X010818Y021655D01*
X010277Y021655D01*
D33*
X010103Y009260D02*
X010103Y008420D01*
X010223Y008300D01*
X011356Y008300D01*
X011573Y008690D02*
X010574Y008690D01*
X010103Y009260D02*
X010253Y009410D01*
X012893Y009410D01*
X013223Y009740D01*
X013223Y010160D01*
X013283Y010220D01*
X013457Y010220D01*
X013283Y010220D02*
X013163Y010340D01*
X013163Y011360D01*
X013063Y011460D01*
X012063Y011460D01*
X013613Y009710D02*
X013523Y009620D01*
X013523Y009262D01*
X013509Y009308D01*
X013613Y009710D02*
X014573Y009710D01*
X014723Y009860D01*
X015653Y009860D01*
X015683Y009860D01*
X015983Y009560D01*
X015983Y008900D01*
X016103Y008780D01*
X018263Y008780D01*
X018443Y008960D01*
X018443Y009500D01*
X018803Y009860D01*
X019639Y009860D01*
X019629Y009850D01*
X019639Y009860D02*
X019943Y009860D01*
X018863Y010400D02*
X018773Y010310D01*
X018478Y010310D01*
X018443Y010375D01*
X018443Y010640D01*
X018413Y010670D01*
X018233Y010670D01*
X018123Y010780D01*
X018123Y011007D01*
X017749Y010399D02*
X017809Y010310D01*
X017749Y010399D02*
X017749Y011834D01*
X016623Y011738D02*
X016623Y012260D01*
X016623Y012580D01*
X016523Y012680D01*
X016403Y013348D02*
X016391Y013360D01*
X018863Y010940D02*
X018863Y010400D01*
X018863Y010940D02*
X019033Y011110D01*
X019629Y011110D01*
X012719Y008954D02*
X012719Y008660D01*
X012719Y008954D02*
X012563Y009110D01*
X011993Y009110D01*
X011573Y008690D01*
D34*
X013457Y010220D02*
X013509Y010332D01*
X013493Y010760D02*
X013403Y010850D01*
X013403Y011660D01*
X012983Y012080D01*
X011783Y012080D01*
X011603Y012260D01*
X011903Y012620D02*
X011903Y013100D01*
X011663Y013340D01*
X011903Y012620D02*
X012263Y012260D01*
X013073Y012260D01*
X013433Y011900D01*
X013763Y011900D01*
X013903Y011760D01*
X013903Y011280D01*
X013993Y011160D01*
X014353Y011130D01*
X014543Y010940D01*
X014543Y010700D01*
X014663Y010580D01*
X015383Y010580D01*
X015653Y010310D01*
X015653Y009860D01*
X015983Y009860D02*
X015983Y010640D01*
X015803Y010820D01*
X015123Y010820D01*
X015123Y011150D01*
X015683Y011249D02*
X015693Y011240D01*
X015923Y011000D01*
X016193Y010730D01*
X016193Y009950D01*
X016368Y009775D01*
X016609Y009775D01*
X016609Y009578D02*
X016265Y009578D01*
X015983Y009860D01*
X016609Y009578D02*
X016609Y009382D01*
X016609Y009185D02*
X016609Y009054D01*
X016673Y008990D01*
X016943Y008990D01*
X016973Y009020D01*
X016973Y008990D01*
X017313Y008990D01*
X017363Y009040D01*
X017363Y009179D01*
X017357Y009185D01*
X017708Y009185D01*
X018113Y009590D01*
X018113Y009710D01*
X018443Y010040D01*
X018443Y010305D01*
X018478Y010310D01*
X017809Y010310D02*
X017783Y010315D01*
X017783Y010040D01*
X017903Y009920D01*
X017903Y009650D01*
X017635Y009382D01*
X017357Y009382D01*
X017357Y009578D02*
X017562Y009578D01*
X017663Y009680D01*
X017663Y009860D01*
X017543Y009980D01*
X017243Y009980D01*
X017003Y010220D01*
X016645Y010220D01*
X016623Y010242D01*
X015683Y011249D02*
X015683Y011652D01*
X015529Y011806D01*
X016003Y012124D02*
X016487Y012124D01*
X016623Y012260D01*
X015683Y013342D02*
X015702Y013360D01*
X014153Y010760D02*
X013493Y010760D01*
X013883Y010332D02*
X013883Y009980D01*
X013943Y009920D01*
X014453Y009920D01*
X014633Y010100D01*
X015083Y010100D01*
X015203Y010220D01*
X014257Y010332D02*
X014257Y010656D01*
X014153Y010760D01*
X016973Y009260D02*
X016973Y009020D01*
D35*
X012063Y010460D02*
X010403Y010460D01*
M02*
