G75*
G70*
%OFA0B0*%
%FSLAX24Y24*%
%IPPOS*%
%LPD*%
%AMOC8*
5,1,8,0,0,1.08239X$1,22.5*
%
%ADD10C,0.0690*%
%ADD11C,0.0434*%
%ADD12R,0.0230X0.0380*%
%ADD13R,0.0230X0.0480*%
%ADD14C,0.0047*%
%ADD15R,0.0552X0.0230*%
%ADD16R,0.0356X0.0434*%
%ADD17R,0.0395X0.0395*%
%ADD18R,0.0513X0.0474*%
%ADD19R,0.0474X0.0513*%
%ADD20R,0.0474X0.0237*%
%ADD21R,0.0434X0.0218*%
%ADD22R,0.0630X0.0217*%
%ADD23R,0.0671X0.0237*%
%ADD24R,0.0280X0.0980*%
%ADD25C,0.0556*%
D10*
X011387Y022955D03*
X020914Y022955D03*
D11*
X020613Y011346D03*
X020613Y009614D03*
D12*
X018428Y006520D03*
X018178Y006520D03*
X017928Y006520D03*
X017678Y006520D03*
X017428Y006520D03*
X017178Y006520D03*
X016928Y006520D03*
X016678Y006520D03*
X016428Y006520D03*
X016178Y006520D03*
X015928Y006520D03*
X015678Y006520D03*
X015428Y006520D03*
X015178Y006520D03*
X014928Y006520D03*
X014678Y006520D03*
X014428Y006520D03*
X014178Y006520D03*
D13*
X014178Y006970D03*
X014428Y006970D03*
X014678Y006970D03*
X014928Y006970D03*
X015178Y006970D03*
X015428Y006970D03*
X015678Y006970D03*
X015928Y006970D03*
X016178Y006970D03*
X016428Y006970D03*
X016678Y006970D03*
X016928Y006970D03*
X017178Y006970D03*
X017428Y006970D03*
X017678Y006970D03*
X017928Y006970D03*
X018178Y006970D03*
X018428Y006970D03*
D14*
X016038Y016449D02*
X015848Y016449D01*
X016038Y016449D02*
X016038Y016021D01*
X015848Y016021D01*
X015848Y016449D01*
X015848Y016067D02*
X016038Y016067D01*
X016038Y016113D02*
X015848Y016113D01*
X015848Y016159D02*
X016038Y016159D01*
X016038Y016205D02*
X015848Y016205D01*
X015848Y016251D02*
X016038Y016251D01*
X016038Y016297D02*
X015848Y016297D01*
X015848Y016343D02*
X016038Y016343D01*
X016038Y016389D02*
X015848Y016389D01*
X015848Y016435D02*
X016038Y016435D01*
X015782Y016449D02*
X015592Y016449D01*
X015782Y016449D02*
X015782Y016021D01*
X015592Y016021D01*
X015592Y016449D01*
X015592Y016067D02*
X015782Y016067D01*
X015782Y016113D02*
X015592Y016113D01*
X015592Y016159D02*
X015782Y016159D01*
X015782Y016205D02*
X015592Y016205D01*
X015592Y016251D02*
X015782Y016251D01*
X015782Y016297D02*
X015592Y016297D01*
X015592Y016343D02*
X015782Y016343D01*
X015782Y016389D02*
X015592Y016389D01*
X015592Y016435D02*
X015782Y016435D01*
X015527Y016449D02*
X015337Y016449D01*
X015527Y016449D02*
X015527Y016021D01*
X015337Y016021D01*
X015337Y016449D01*
X015337Y016067D02*
X015527Y016067D01*
X015527Y016113D02*
X015337Y016113D01*
X015337Y016159D02*
X015527Y016159D01*
X015527Y016205D02*
X015337Y016205D01*
X015337Y016251D02*
X015527Y016251D01*
X015527Y016297D02*
X015337Y016297D01*
X015337Y016343D02*
X015527Y016343D01*
X015527Y016389D02*
X015337Y016389D01*
X015337Y016435D02*
X015527Y016435D01*
X015271Y016449D02*
X015081Y016449D01*
X015271Y016449D02*
X015271Y016021D01*
X015081Y016021D01*
X015081Y016449D01*
X015081Y016067D02*
X015271Y016067D01*
X015271Y016113D02*
X015081Y016113D01*
X015081Y016159D02*
X015271Y016159D01*
X015271Y016205D02*
X015081Y016205D01*
X015081Y016251D02*
X015271Y016251D01*
X015271Y016297D02*
X015081Y016297D01*
X015081Y016343D02*
X015271Y016343D01*
X015271Y016389D02*
X015081Y016389D01*
X015081Y016435D02*
X015271Y016435D01*
X015015Y016449D02*
X014825Y016449D01*
X015015Y016449D02*
X015015Y016021D01*
X014825Y016021D01*
X014825Y016449D01*
X014825Y016067D02*
X015015Y016067D01*
X015015Y016113D02*
X014825Y016113D01*
X014825Y016159D02*
X015015Y016159D01*
X015015Y016205D02*
X014825Y016205D01*
X014825Y016251D02*
X015015Y016251D01*
X015015Y016297D02*
X014825Y016297D01*
X014825Y016343D02*
X015015Y016343D01*
X015015Y016389D02*
X014825Y016389D01*
X014825Y016435D02*
X015015Y016435D01*
X014759Y016449D02*
X014569Y016449D01*
X014759Y016449D02*
X014759Y016021D01*
X014569Y016021D01*
X014569Y016449D01*
X014569Y016067D02*
X014759Y016067D01*
X014759Y016113D02*
X014569Y016113D01*
X014569Y016159D02*
X014759Y016159D01*
X014759Y016205D02*
X014569Y016205D01*
X014569Y016251D02*
X014759Y016251D01*
X014759Y016297D02*
X014569Y016297D01*
X014569Y016343D02*
X014759Y016343D01*
X014759Y016389D02*
X014569Y016389D01*
X014569Y016435D02*
X014759Y016435D01*
X014503Y016449D02*
X014313Y016449D01*
X014503Y016449D02*
X014503Y016021D01*
X014313Y016021D01*
X014313Y016449D01*
X014313Y016067D02*
X014503Y016067D01*
X014503Y016113D02*
X014313Y016113D01*
X014313Y016159D02*
X014503Y016159D01*
X014503Y016205D02*
X014313Y016205D01*
X014313Y016251D02*
X014503Y016251D01*
X014503Y016297D02*
X014313Y016297D01*
X014313Y016343D02*
X014503Y016343D01*
X014503Y016389D02*
X014313Y016389D01*
X014313Y016435D02*
X014503Y016435D01*
X014247Y016449D02*
X014057Y016449D01*
X014247Y016449D02*
X014247Y016021D01*
X014057Y016021D01*
X014057Y016449D01*
X014057Y016067D02*
X014247Y016067D01*
X014247Y016113D02*
X014057Y016113D01*
X014057Y016159D02*
X014247Y016159D01*
X014247Y016205D02*
X014057Y016205D01*
X014057Y016251D02*
X014247Y016251D01*
X014247Y016297D02*
X014057Y016297D01*
X014057Y016343D02*
X014247Y016343D01*
X014247Y016389D02*
X014057Y016389D01*
X014057Y016435D02*
X014247Y016435D01*
X014247Y019520D02*
X014057Y019520D01*
X014247Y019520D02*
X014247Y019092D01*
X014057Y019092D01*
X014057Y019520D01*
X014057Y019138D02*
X014247Y019138D01*
X014247Y019184D02*
X014057Y019184D01*
X014057Y019230D02*
X014247Y019230D01*
X014247Y019276D02*
X014057Y019276D01*
X014057Y019322D02*
X014247Y019322D01*
X014247Y019368D02*
X014057Y019368D01*
X014057Y019414D02*
X014247Y019414D01*
X014247Y019460D02*
X014057Y019460D01*
X014057Y019506D02*
X014247Y019506D01*
X014313Y019520D02*
X014503Y019520D01*
X014503Y019092D01*
X014313Y019092D01*
X014313Y019520D01*
X014313Y019138D02*
X014503Y019138D01*
X014503Y019184D02*
X014313Y019184D01*
X014313Y019230D02*
X014503Y019230D01*
X014503Y019276D02*
X014313Y019276D01*
X014313Y019322D02*
X014503Y019322D01*
X014503Y019368D02*
X014313Y019368D01*
X014313Y019414D02*
X014503Y019414D01*
X014503Y019460D02*
X014313Y019460D01*
X014313Y019506D02*
X014503Y019506D01*
X014569Y019520D02*
X014759Y019520D01*
X014759Y019092D01*
X014569Y019092D01*
X014569Y019520D01*
X014569Y019138D02*
X014759Y019138D01*
X014759Y019184D02*
X014569Y019184D01*
X014569Y019230D02*
X014759Y019230D01*
X014759Y019276D02*
X014569Y019276D01*
X014569Y019322D02*
X014759Y019322D01*
X014759Y019368D02*
X014569Y019368D01*
X014569Y019414D02*
X014759Y019414D01*
X014759Y019460D02*
X014569Y019460D01*
X014569Y019506D02*
X014759Y019506D01*
X014825Y019520D02*
X015015Y019520D01*
X015015Y019092D01*
X014825Y019092D01*
X014825Y019520D01*
X014825Y019138D02*
X015015Y019138D01*
X015015Y019184D02*
X014825Y019184D01*
X014825Y019230D02*
X015015Y019230D01*
X015015Y019276D02*
X014825Y019276D01*
X014825Y019322D02*
X015015Y019322D01*
X015015Y019368D02*
X014825Y019368D01*
X014825Y019414D02*
X015015Y019414D01*
X015015Y019460D02*
X014825Y019460D01*
X014825Y019506D02*
X015015Y019506D01*
X015081Y019520D02*
X015271Y019520D01*
X015271Y019092D01*
X015081Y019092D01*
X015081Y019520D01*
X015081Y019138D02*
X015271Y019138D01*
X015271Y019184D02*
X015081Y019184D01*
X015081Y019230D02*
X015271Y019230D01*
X015271Y019276D02*
X015081Y019276D01*
X015081Y019322D02*
X015271Y019322D01*
X015271Y019368D02*
X015081Y019368D01*
X015081Y019414D02*
X015271Y019414D01*
X015271Y019460D02*
X015081Y019460D01*
X015081Y019506D02*
X015271Y019506D01*
X015337Y019520D02*
X015527Y019520D01*
X015527Y019092D01*
X015337Y019092D01*
X015337Y019520D01*
X015337Y019138D02*
X015527Y019138D01*
X015527Y019184D02*
X015337Y019184D01*
X015337Y019230D02*
X015527Y019230D01*
X015527Y019276D02*
X015337Y019276D01*
X015337Y019322D02*
X015527Y019322D01*
X015527Y019368D02*
X015337Y019368D01*
X015337Y019414D02*
X015527Y019414D01*
X015527Y019460D02*
X015337Y019460D01*
X015337Y019506D02*
X015527Y019506D01*
X015592Y019520D02*
X015782Y019520D01*
X015782Y019092D01*
X015592Y019092D01*
X015592Y019520D01*
X015592Y019138D02*
X015782Y019138D01*
X015782Y019184D02*
X015592Y019184D01*
X015592Y019230D02*
X015782Y019230D01*
X015782Y019276D02*
X015592Y019276D01*
X015592Y019322D02*
X015782Y019322D01*
X015782Y019368D02*
X015592Y019368D01*
X015592Y019414D02*
X015782Y019414D01*
X015782Y019460D02*
X015592Y019460D01*
X015592Y019506D02*
X015782Y019506D01*
X015848Y019520D02*
X016038Y019520D01*
X016038Y019092D01*
X015848Y019092D01*
X015848Y019520D01*
X015848Y019138D02*
X016038Y019138D01*
X016038Y019184D02*
X015848Y019184D01*
X015848Y019230D02*
X016038Y019230D01*
X016038Y019276D02*
X015848Y019276D01*
X015848Y019322D02*
X016038Y019322D01*
X016038Y019368D02*
X015848Y019368D01*
X015848Y019414D02*
X016038Y019414D01*
X016038Y019460D02*
X015848Y019460D01*
X015848Y019506D02*
X016038Y019506D01*
D15*
X013203Y019572D03*
X013203Y019316D03*
X013203Y019060D03*
X013203Y019828D03*
X012100Y019828D03*
X012100Y019572D03*
X012100Y019316D03*
X012100Y019060D03*
D16*
X013247Y015900D03*
X013759Y015900D03*
X015507Y015570D03*
X016019Y015570D03*
X018027Y015580D03*
X018539Y015580D03*
X017609Y017460D03*
X017097Y017460D03*
X016859Y017920D03*
X016347Y017920D03*
X011139Y013340D03*
X010627Y013340D03*
D17*
X010588Y012840D03*
X011179Y012840D03*
D18*
X012169Y012760D03*
X012838Y012760D03*
X017349Y012620D03*
X018018Y012620D03*
X015298Y020020D03*
X014629Y020020D03*
D19*
X011283Y019775D03*
X011283Y019105D03*
X013203Y015015D03*
X013203Y014345D03*
X019963Y014205D03*
X019963Y014875D03*
X020153Y016155D03*
X020153Y016825D03*
D20*
X019134Y016863D03*
X019134Y016608D03*
X019134Y016352D03*
X019134Y016096D03*
X017352Y016096D03*
X017352Y016352D03*
X017352Y016608D03*
X017352Y016863D03*
D21*
X017131Y015176D03*
X017131Y014920D03*
X017131Y014664D03*
X017131Y014408D03*
X017131Y014152D03*
X017131Y013896D03*
X017131Y013640D03*
X017131Y013384D03*
X019395Y013384D03*
X019395Y013640D03*
X019395Y013896D03*
X019395Y014152D03*
X019395Y014408D03*
X019395Y014664D03*
X019395Y014920D03*
X019395Y015176D03*
D22*
X011114Y009213D03*
X011114Y009468D03*
X011114Y009724D03*
X011114Y009980D03*
X011114Y010236D03*
X011114Y010492D03*
X011114Y010748D03*
X011114Y011004D03*
X011114Y011260D03*
X011114Y011516D03*
X011114Y011772D03*
X011114Y012027D03*
X013993Y012027D03*
X013993Y011772D03*
X013993Y011516D03*
X013993Y011260D03*
X013993Y011004D03*
X013993Y010748D03*
X013993Y010492D03*
X013993Y010236D03*
X013993Y009980D03*
X013993Y009724D03*
X013993Y009468D03*
X013993Y009213D03*
X016114Y009213D03*
X016114Y009468D03*
X016114Y009724D03*
X016114Y009980D03*
X016114Y010236D03*
X016114Y010492D03*
X016114Y010748D03*
X016114Y011004D03*
X016114Y011260D03*
X016114Y011516D03*
X016114Y011772D03*
X016114Y012027D03*
X018993Y012027D03*
X018993Y011772D03*
X018993Y011516D03*
X018993Y011260D03*
X018993Y011004D03*
X018993Y010748D03*
X018993Y010492D03*
X018993Y010236D03*
X018993Y009980D03*
X018993Y009724D03*
X018993Y009468D03*
X018993Y009213D03*
D23*
X016138Y013265D03*
X016138Y013515D03*
X016138Y013765D03*
X016138Y014015D03*
X016138Y014265D03*
X016138Y014515D03*
X016138Y014765D03*
X016138Y015015D03*
X013868Y015015D03*
X013868Y014765D03*
X013868Y014515D03*
X013868Y014265D03*
X013868Y014015D03*
X013868Y013765D03*
X013868Y013515D03*
X013868Y013265D03*
D24*
X012413Y015700D03*
X011913Y015700D03*
X011413Y015700D03*
X010913Y015700D03*
X010913Y017700D03*
X011413Y017700D03*
X011913Y017700D03*
X012413Y017700D03*
D25*
X010403Y010460D03*
M02*
