G75*
G70*
%OFA0B0*%
%FSLAX24Y24*%
%IPPOS*%
%LPD*%
%AMOC8*
5,1,8,0,0,1.08239X$1,22.5*
%
%ADD10R,0.0150X0.0300*%
%ADD11R,0.0150X0.0400*%
%ADD12C,0.0031*%
%ADD13R,0.0472X0.0150*%
%ADD14R,0.0276X0.0354*%
%ADD15R,0.0315X0.0315*%
%ADD16R,0.0433X0.0394*%
%ADD17R,0.0394X0.0433*%
%ADD18R,0.0394X0.0157*%
%ADD19R,0.0354X0.0138*%
%ADD20R,0.0550X0.0137*%
%ADD21R,0.0591X0.0157*%
%ADD22R,0.0200X0.0900*%
%ADD23C,0.0400*%
%ADD24C,0.0060*%
%ADD25C,0.0120*%
%ADD26C,0.0476*%
%ADD27C,0.0350*%
%ADD28C,0.0160*%
%ADD29C,0.0100*%
%ADD30C,0.0080*%
D10*
X014178Y006520D03*
X014428Y006520D03*
X014678Y006520D03*
X014928Y006520D03*
X015178Y006520D03*
X015428Y006520D03*
X015678Y006520D03*
X015928Y006520D03*
X016178Y006520D03*
X016428Y006520D03*
X016678Y006520D03*
X016928Y006520D03*
X017178Y006520D03*
X017428Y006520D03*
X017678Y006520D03*
X017928Y006520D03*
X018178Y006520D03*
X018428Y006520D03*
D11*
X018428Y006970D03*
X018178Y006970D03*
X017928Y006970D03*
X017678Y006970D03*
X017428Y006970D03*
X017178Y006970D03*
X016928Y006970D03*
X016678Y006970D03*
X016428Y006970D03*
X016178Y006970D03*
X015928Y006970D03*
X015678Y006970D03*
X015428Y006970D03*
X015178Y006970D03*
X014928Y006970D03*
X014678Y006970D03*
X014428Y006970D03*
X014178Y006970D03*
D12*
X014089Y016417D02*
X014215Y016417D01*
X014215Y016053D01*
X014089Y016053D01*
X014089Y016417D01*
X014089Y016083D02*
X014215Y016083D01*
X014215Y016113D02*
X014089Y016113D01*
X014089Y016143D02*
X014215Y016143D01*
X014215Y016173D02*
X014089Y016173D01*
X014089Y016203D02*
X014215Y016203D01*
X014215Y016233D02*
X014089Y016233D01*
X014089Y016263D02*
X014215Y016263D01*
X014215Y016293D02*
X014089Y016293D01*
X014089Y016323D02*
X014215Y016323D01*
X014215Y016353D02*
X014089Y016353D01*
X014089Y016383D02*
X014215Y016383D01*
X014215Y016413D02*
X014089Y016413D01*
X014345Y016417D02*
X014471Y016417D01*
X014471Y016053D01*
X014345Y016053D01*
X014345Y016417D01*
X014345Y016083D02*
X014471Y016083D01*
X014471Y016113D02*
X014345Y016113D01*
X014345Y016143D02*
X014471Y016143D01*
X014471Y016173D02*
X014345Y016173D01*
X014345Y016203D02*
X014471Y016203D01*
X014471Y016233D02*
X014345Y016233D01*
X014345Y016263D02*
X014471Y016263D01*
X014471Y016293D02*
X014345Y016293D01*
X014345Y016323D02*
X014471Y016323D01*
X014471Y016353D02*
X014345Y016353D01*
X014345Y016383D02*
X014471Y016383D01*
X014471Y016413D02*
X014345Y016413D01*
X014601Y016417D02*
X014727Y016417D01*
X014727Y016053D01*
X014601Y016053D01*
X014601Y016417D01*
X014601Y016083D02*
X014727Y016083D01*
X014727Y016113D02*
X014601Y016113D01*
X014601Y016143D02*
X014727Y016143D01*
X014727Y016173D02*
X014601Y016173D01*
X014601Y016203D02*
X014727Y016203D01*
X014727Y016233D02*
X014601Y016233D01*
X014601Y016263D02*
X014727Y016263D01*
X014727Y016293D02*
X014601Y016293D01*
X014601Y016323D02*
X014727Y016323D01*
X014727Y016353D02*
X014601Y016353D01*
X014601Y016383D02*
X014727Y016383D01*
X014727Y016413D02*
X014601Y016413D01*
X014857Y016417D02*
X014983Y016417D01*
X014983Y016053D01*
X014857Y016053D01*
X014857Y016417D01*
X014857Y016083D02*
X014983Y016083D01*
X014983Y016113D02*
X014857Y016113D01*
X014857Y016143D02*
X014983Y016143D01*
X014983Y016173D02*
X014857Y016173D01*
X014857Y016203D02*
X014983Y016203D01*
X014983Y016233D02*
X014857Y016233D01*
X014857Y016263D02*
X014983Y016263D01*
X014983Y016293D02*
X014857Y016293D01*
X014857Y016323D02*
X014983Y016323D01*
X014983Y016353D02*
X014857Y016353D01*
X014857Y016383D02*
X014983Y016383D01*
X014983Y016413D02*
X014857Y016413D01*
X015113Y016417D02*
X015239Y016417D01*
X015239Y016053D01*
X015113Y016053D01*
X015113Y016417D01*
X015113Y016083D02*
X015239Y016083D01*
X015239Y016113D02*
X015113Y016113D01*
X015113Y016143D02*
X015239Y016143D01*
X015239Y016173D02*
X015113Y016173D01*
X015113Y016203D02*
X015239Y016203D01*
X015239Y016233D02*
X015113Y016233D01*
X015113Y016263D02*
X015239Y016263D01*
X015239Y016293D02*
X015113Y016293D01*
X015113Y016323D02*
X015239Y016323D01*
X015239Y016353D02*
X015113Y016353D01*
X015113Y016383D02*
X015239Y016383D01*
X015239Y016413D02*
X015113Y016413D01*
X015369Y016417D02*
X015495Y016417D01*
X015495Y016053D01*
X015369Y016053D01*
X015369Y016417D01*
X015369Y016083D02*
X015495Y016083D01*
X015495Y016113D02*
X015369Y016113D01*
X015369Y016143D02*
X015495Y016143D01*
X015495Y016173D02*
X015369Y016173D01*
X015369Y016203D02*
X015495Y016203D01*
X015495Y016233D02*
X015369Y016233D01*
X015369Y016263D02*
X015495Y016263D01*
X015495Y016293D02*
X015369Y016293D01*
X015369Y016323D02*
X015495Y016323D01*
X015495Y016353D02*
X015369Y016353D01*
X015369Y016383D02*
X015495Y016383D01*
X015495Y016413D02*
X015369Y016413D01*
X015624Y016417D02*
X015750Y016417D01*
X015750Y016053D01*
X015624Y016053D01*
X015624Y016417D01*
X015624Y016083D02*
X015750Y016083D01*
X015750Y016113D02*
X015624Y016113D01*
X015624Y016143D02*
X015750Y016143D01*
X015750Y016173D02*
X015624Y016173D01*
X015624Y016203D02*
X015750Y016203D01*
X015750Y016233D02*
X015624Y016233D01*
X015624Y016263D02*
X015750Y016263D01*
X015750Y016293D02*
X015624Y016293D01*
X015624Y016323D02*
X015750Y016323D01*
X015750Y016353D02*
X015624Y016353D01*
X015624Y016383D02*
X015750Y016383D01*
X015750Y016413D02*
X015624Y016413D01*
X015880Y016417D02*
X016006Y016417D01*
X016006Y016053D01*
X015880Y016053D01*
X015880Y016417D01*
X015880Y016083D02*
X016006Y016083D01*
X016006Y016113D02*
X015880Y016113D01*
X015880Y016143D02*
X016006Y016143D01*
X016006Y016173D02*
X015880Y016173D01*
X015880Y016203D02*
X016006Y016203D01*
X016006Y016233D02*
X015880Y016233D01*
X015880Y016263D02*
X016006Y016263D01*
X016006Y016293D02*
X015880Y016293D01*
X015880Y016323D02*
X016006Y016323D01*
X016006Y016353D02*
X015880Y016353D01*
X015880Y016383D02*
X016006Y016383D01*
X016006Y016413D02*
X015880Y016413D01*
X015880Y019488D02*
X016006Y019488D01*
X016006Y019124D01*
X015880Y019124D01*
X015880Y019488D01*
X015880Y019154D02*
X016006Y019154D01*
X016006Y019184D02*
X015880Y019184D01*
X015880Y019214D02*
X016006Y019214D01*
X016006Y019244D02*
X015880Y019244D01*
X015880Y019274D02*
X016006Y019274D01*
X016006Y019304D02*
X015880Y019304D01*
X015880Y019334D02*
X016006Y019334D01*
X016006Y019364D02*
X015880Y019364D01*
X015880Y019394D02*
X016006Y019394D01*
X016006Y019424D02*
X015880Y019424D01*
X015880Y019454D02*
X016006Y019454D01*
X016006Y019484D02*
X015880Y019484D01*
X015750Y019488D02*
X015624Y019488D01*
X015750Y019488D02*
X015750Y019124D01*
X015624Y019124D01*
X015624Y019488D01*
X015624Y019154D02*
X015750Y019154D01*
X015750Y019184D02*
X015624Y019184D01*
X015624Y019214D02*
X015750Y019214D01*
X015750Y019244D02*
X015624Y019244D01*
X015624Y019274D02*
X015750Y019274D01*
X015750Y019304D02*
X015624Y019304D01*
X015624Y019334D02*
X015750Y019334D01*
X015750Y019364D02*
X015624Y019364D01*
X015624Y019394D02*
X015750Y019394D01*
X015750Y019424D02*
X015624Y019424D01*
X015624Y019454D02*
X015750Y019454D01*
X015750Y019484D02*
X015624Y019484D01*
X015495Y019488D02*
X015369Y019488D01*
X015495Y019488D02*
X015495Y019124D01*
X015369Y019124D01*
X015369Y019488D01*
X015369Y019154D02*
X015495Y019154D01*
X015495Y019184D02*
X015369Y019184D01*
X015369Y019214D02*
X015495Y019214D01*
X015495Y019244D02*
X015369Y019244D01*
X015369Y019274D02*
X015495Y019274D01*
X015495Y019304D02*
X015369Y019304D01*
X015369Y019334D02*
X015495Y019334D01*
X015495Y019364D02*
X015369Y019364D01*
X015369Y019394D02*
X015495Y019394D01*
X015495Y019424D02*
X015369Y019424D01*
X015369Y019454D02*
X015495Y019454D01*
X015495Y019484D02*
X015369Y019484D01*
X015239Y019488D02*
X015113Y019488D01*
X015239Y019488D02*
X015239Y019124D01*
X015113Y019124D01*
X015113Y019488D01*
X015113Y019154D02*
X015239Y019154D01*
X015239Y019184D02*
X015113Y019184D01*
X015113Y019214D02*
X015239Y019214D01*
X015239Y019244D02*
X015113Y019244D01*
X015113Y019274D02*
X015239Y019274D01*
X015239Y019304D02*
X015113Y019304D01*
X015113Y019334D02*
X015239Y019334D01*
X015239Y019364D02*
X015113Y019364D01*
X015113Y019394D02*
X015239Y019394D01*
X015239Y019424D02*
X015113Y019424D01*
X015113Y019454D02*
X015239Y019454D01*
X015239Y019484D02*
X015113Y019484D01*
X014983Y019488D02*
X014857Y019488D01*
X014983Y019488D02*
X014983Y019124D01*
X014857Y019124D01*
X014857Y019488D01*
X014857Y019154D02*
X014983Y019154D01*
X014983Y019184D02*
X014857Y019184D01*
X014857Y019214D02*
X014983Y019214D01*
X014983Y019244D02*
X014857Y019244D01*
X014857Y019274D02*
X014983Y019274D01*
X014983Y019304D02*
X014857Y019304D01*
X014857Y019334D02*
X014983Y019334D01*
X014983Y019364D02*
X014857Y019364D01*
X014857Y019394D02*
X014983Y019394D01*
X014983Y019424D02*
X014857Y019424D01*
X014857Y019454D02*
X014983Y019454D01*
X014983Y019484D02*
X014857Y019484D01*
X014727Y019488D02*
X014601Y019488D01*
X014727Y019488D02*
X014727Y019124D01*
X014601Y019124D01*
X014601Y019488D01*
X014601Y019154D02*
X014727Y019154D01*
X014727Y019184D02*
X014601Y019184D01*
X014601Y019214D02*
X014727Y019214D01*
X014727Y019244D02*
X014601Y019244D01*
X014601Y019274D02*
X014727Y019274D01*
X014727Y019304D02*
X014601Y019304D01*
X014601Y019334D02*
X014727Y019334D01*
X014727Y019364D02*
X014601Y019364D01*
X014601Y019394D02*
X014727Y019394D01*
X014727Y019424D02*
X014601Y019424D01*
X014601Y019454D02*
X014727Y019454D01*
X014727Y019484D02*
X014601Y019484D01*
X014471Y019488D02*
X014345Y019488D01*
X014471Y019488D02*
X014471Y019124D01*
X014345Y019124D01*
X014345Y019488D01*
X014345Y019154D02*
X014471Y019154D01*
X014471Y019184D02*
X014345Y019184D01*
X014345Y019214D02*
X014471Y019214D01*
X014471Y019244D02*
X014345Y019244D01*
X014345Y019274D02*
X014471Y019274D01*
X014471Y019304D02*
X014345Y019304D01*
X014345Y019334D02*
X014471Y019334D01*
X014471Y019364D02*
X014345Y019364D01*
X014345Y019394D02*
X014471Y019394D01*
X014471Y019424D02*
X014345Y019424D01*
X014345Y019454D02*
X014471Y019454D01*
X014471Y019484D02*
X014345Y019484D01*
X014215Y019488D02*
X014089Y019488D01*
X014215Y019488D02*
X014215Y019124D01*
X014089Y019124D01*
X014089Y019488D01*
X014089Y019154D02*
X014215Y019154D01*
X014215Y019184D02*
X014089Y019184D01*
X014089Y019214D02*
X014215Y019214D01*
X014215Y019244D02*
X014089Y019244D01*
X014089Y019274D02*
X014215Y019274D01*
X014215Y019304D02*
X014089Y019304D01*
X014089Y019334D02*
X014215Y019334D01*
X014215Y019364D02*
X014089Y019364D01*
X014089Y019394D02*
X014215Y019394D01*
X014215Y019424D02*
X014089Y019424D01*
X014089Y019454D02*
X014215Y019454D01*
X014215Y019484D02*
X014089Y019484D01*
D13*
X013203Y019572D03*
X013203Y019316D03*
X013203Y019060D03*
X013203Y019828D03*
X012100Y019828D03*
X012100Y019572D03*
X012100Y019316D03*
X012100Y019060D03*
D14*
X013247Y015900D03*
X013759Y015900D03*
X015507Y015570D03*
X016019Y015570D03*
X018027Y015580D03*
X018539Y015580D03*
X017609Y017460D03*
X017097Y017460D03*
X016859Y017920D03*
X016347Y017920D03*
X011139Y013340D03*
X010627Y013340D03*
D15*
X010588Y012840D03*
X011179Y012840D03*
D16*
X012169Y012760D03*
X012838Y012760D03*
X017349Y012620D03*
X018018Y012620D03*
X015298Y020020D03*
X014629Y020020D03*
D17*
X011283Y019775D03*
X011283Y019105D03*
X013203Y015015D03*
X013203Y014345D03*
X019963Y014205D03*
X019963Y014875D03*
X020153Y016155D03*
X020153Y016825D03*
D18*
X019134Y016863D03*
X019134Y016608D03*
X019134Y016352D03*
X019134Y016096D03*
X017352Y016096D03*
X017352Y016352D03*
X017352Y016608D03*
X017352Y016863D03*
D19*
X017131Y015176D03*
X017131Y014920D03*
X017131Y014664D03*
X017131Y014408D03*
X017131Y014152D03*
X017131Y013896D03*
X017131Y013640D03*
X017131Y013384D03*
X019395Y013384D03*
X019395Y013640D03*
X019395Y013896D03*
X019395Y014152D03*
X019395Y014408D03*
X019395Y014664D03*
X019395Y014920D03*
X019395Y015176D03*
D20*
X018993Y012027D03*
X018993Y011772D03*
X018993Y011516D03*
X018993Y011260D03*
X018993Y011004D03*
X018993Y010748D03*
X018993Y010492D03*
X018993Y010236D03*
X018993Y009980D03*
X018993Y009724D03*
X018993Y009468D03*
X018993Y009213D03*
X016114Y009213D03*
X016114Y009468D03*
X016114Y009724D03*
X016114Y009980D03*
X016114Y010236D03*
X016114Y010492D03*
X016114Y010748D03*
X016114Y011004D03*
X016114Y011260D03*
X016114Y011516D03*
X016114Y011772D03*
X016114Y012027D03*
X013993Y012027D03*
X013993Y011772D03*
X013993Y011516D03*
X013993Y011260D03*
X013993Y011004D03*
X013993Y010748D03*
X013993Y010492D03*
X013993Y010236D03*
X013993Y009980D03*
X013993Y009724D03*
X013993Y009468D03*
X013993Y009213D03*
X011114Y009213D03*
X011114Y009468D03*
X011114Y009724D03*
X011114Y009980D03*
X011114Y010236D03*
X011114Y010492D03*
X011114Y010748D03*
X011114Y011004D03*
X011114Y011260D03*
X011114Y011516D03*
X011114Y011772D03*
X011114Y012027D03*
D21*
X013868Y013265D03*
X013868Y013515D03*
X013868Y013765D03*
X013868Y014015D03*
X013868Y014265D03*
X013868Y014515D03*
X013868Y014765D03*
X013868Y015015D03*
X016138Y015015D03*
X016138Y014765D03*
X016138Y014515D03*
X016138Y014265D03*
X016138Y014015D03*
X016138Y013765D03*
X016138Y013515D03*
X016138Y013265D03*
D22*
X012413Y015700D03*
X011913Y015700D03*
X011413Y015700D03*
X010913Y015700D03*
X010913Y017700D03*
X011413Y017700D03*
X011913Y017700D03*
X012413Y017700D03*
D23*
X010153Y018120D03*
X010153Y017120D03*
X010153Y016120D03*
X010153Y015120D03*
X010153Y014120D03*
X010153Y019120D03*
X010153Y020120D03*
X011103Y021370D03*
X012103Y021370D03*
X013103Y021370D03*
X014103Y021370D03*
X015103Y021370D03*
X016103Y021370D03*
X017103Y021370D03*
X018103Y021370D03*
X019103Y021370D03*
X020103Y021370D03*
X021103Y021370D03*
X022053Y021120D03*
X022053Y020120D03*
X022053Y019120D03*
X022053Y018120D03*
X022053Y017120D03*
X022053Y016120D03*
X022053Y015120D03*
X022053Y014120D03*
D24*
X020783Y014240D02*
X020783Y013220D01*
X020423Y012920D02*
X020423Y013760D01*
X020303Y013880D01*
X019411Y013880D01*
X019395Y013896D01*
X019395Y013640D02*
X018924Y013640D01*
X018803Y013520D01*
X018803Y013100D01*
X019163Y012740D01*
X019403Y012740D01*
X019823Y012320D01*
X019823Y009500D01*
X019943Y009380D01*
X020063Y009380D01*
X020363Y009080D01*
X020363Y008420D01*
X020423Y008360D01*
X020543Y008360D01*
X020723Y008180D01*
X020963Y008180D01*
X021083Y008060D01*
X021083Y007880D01*
X020723Y007520D01*
X020063Y007520D01*
X019343Y008240D01*
X018803Y008240D01*
X018443Y008600D01*
X018443Y009560D01*
X018608Y009724D01*
X018993Y009724D01*
X018993Y009468D02*
X018652Y009468D01*
X018563Y009380D01*
X018563Y008900D01*
X018623Y008840D01*
X018803Y008840D01*
X018803Y008600D01*
X018983Y008420D01*
X019823Y008420D01*
X020003Y008600D01*
X020003Y008900D01*
X019883Y009020D01*
X019763Y009020D01*
X019463Y009320D01*
X019463Y012140D01*
X019223Y012380D01*
X018983Y012380D01*
X018443Y012920D01*
X018443Y013700D01*
X018803Y014060D01*
X018803Y014180D01*
X018563Y014420D01*
X018323Y014420D01*
X018143Y014240D01*
X018143Y014060D01*
X017483Y013400D01*
X017147Y013400D01*
X017131Y013384D01*
X017132Y013640D02*
X017131Y013640D01*
X017132Y013640D02*
X017543Y013640D01*
X018023Y014120D01*
X018023Y014300D01*
X018263Y014540D01*
X018623Y014540D01*
X018923Y014240D01*
X018923Y014000D01*
X018563Y013640D01*
X018563Y012980D01*
X019043Y012500D01*
X019283Y012500D01*
X019583Y012200D01*
X019583Y009380D01*
X019823Y009140D01*
X019943Y009140D01*
X020123Y008960D01*
X020123Y007880D01*
X020363Y008240D02*
X020243Y008360D01*
X020243Y009020D01*
X020003Y009260D01*
X019883Y009260D01*
X019703Y009440D01*
X019703Y012260D01*
X019343Y012620D01*
X019103Y012620D01*
X018683Y013040D01*
X018683Y013580D01*
X019043Y013940D01*
X019043Y014300D01*
X018683Y014660D01*
X018203Y014660D01*
X017903Y014360D01*
X017903Y014180D01*
X017603Y013880D01*
X017148Y013880D01*
X017131Y013896D01*
X017099Y014150D02*
X016913Y014150D01*
X016548Y014515D01*
X016138Y014515D01*
X016138Y014265D02*
X015228Y014265D01*
X014663Y013700D01*
X014663Y013220D01*
X014003Y012560D01*
X014003Y012038D01*
X013993Y012027D01*
X013993Y011772D02*
X013155Y011772D01*
X012503Y011120D01*
X012503Y007940D01*
X013103Y007340D01*
X014303Y007340D01*
X014423Y007220D01*
X014423Y006975D01*
X014428Y006970D01*
X014663Y006985D02*
X014663Y007220D01*
X014423Y007460D01*
X013163Y007460D01*
X012623Y008000D01*
X012623Y011060D01*
X013079Y011516D01*
X013993Y011516D01*
X013993Y011260D02*
X013003Y011260D01*
X012743Y011000D01*
X012743Y008060D01*
X013223Y007580D01*
X014603Y007580D01*
X014933Y007250D01*
X014933Y006965D01*
X014928Y006970D01*
X015173Y007005D02*
X015178Y006970D01*
X015173Y007005D02*
X015173Y007250D01*
X014723Y007700D01*
X013283Y007700D01*
X012863Y008120D01*
X012863Y010820D01*
X013047Y011004D01*
X013993Y011004D01*
X013993Y010748D02*
X013091Y010748D01*
X012983Y010640D01*
X012983Y008180D01*
X013343Y007820D01*
X014903Y007820D01*
X015443Y007280D01*
X015443Y006985D01*
X015428Y006970D01*
X015678Y006970D02*
X015683Y006975D01*
X015683Y007340D01*
X015083Y007940D01*
X013403Y007940D01*
X013103Y008240D01*
X013103Y010400D01*
X013195Y010492D01*
X013993Y010492D01*
X013993Y010236D02*
X013359Y010236D01*
X013223Y010100D01*
X013223Y008300D01*
X013463Y008060D01*
X015203Y008060D01*
X015923Y007340D01*
X015923Y006975D01*
X015928Y006970D01*
X016163Y006985D02*
X016178Y006970D01*
X016163Y006985D02*
X016163Y007400D01*
X015383Y008180D01*
X013523Y008180D01*
X013343Y008360D01*
X013343Y009920D01*
X013404Y009980D01*
X013993Y009980D01*
X013993Y009724D02*
X013628Y009724D01*
X013463Y009560D01*
X013463Y008420D01*
X013583Y008300D01*
X014512Y008300D01*
X014678Y008464D01*
X014963Y008600D02*
X014783Y008780D01*
X014483Y008780D01*
X014123Y008420D01*
X013643Y008420D01*
X013583Y008480D01*
X013583Y009380D01*
X013672Y009468D01*
X013993Y009468D01*
X014155Y009468D01*
X013993Y009213D02*
X013883Y009200D01*
X014963Y008600D02*
X015683Y008600D01*
X015636Y009093D02*
X015276Y009093D01*
X015636Y009093D02*
X015743Y009200D01*
X016114Y009213D01*
X016114Y009468D02*
X015532Y009468D01*
X016114Y009980D02*
X016114Y009980D01*
X016463Y009980D01*
X016523Y009920D01*
X016523Y007700D01*
X016428Y007605D01*
X016428Y006970D01*
X016678Y006970D02*
X016678Y007665D01*
X016643Y007700D01*
X016643Y010100D01*
X016523Y010220D01*
X016130Y010220D01*
X016114Y010236D01*
X016114Y010492D02*
X016142Y010520D01*
X016523Y010520D01*
X016763Y010280D01*
X016763Y007760D01*
X016928Y007595D01*
X016928Y006970D01*
X017178Y006970D02*
X017178Y007525D01*
X016883Y007820D01*
X016883Y010520D01*
X016643Y010760D01*
X016126Y010760D01*
X016114Y010748D01*
X016118Y011000D02*
X016114Y011004D01*
X016118Y011000D02*
X016703Y011000D01*
X017003Y010700D01*
X017003Y007880D01*
X017428Y007455D01*
X017428Y006970D01*
X017678Y006970D02*
X017678Y007265D01*
X017663Y007280D01*
X017663Y007400D01*
X017123Y007940D01*
X017123Y010820D01*
X016703Y011240D01*
X016134Y011240D01*
X016114Y011260D01*
X016150Y011480D02*
X016114Y011516D01*
X016150Y011480D02*
X016763Y011480D01*
X017243Y011000D01*
X017243Y008000D01*
X017928Y007315D01*
X017928Y006970D01*
X018178Y006970D02*
X018178Y007245D01*
X017363Y008060D01*
X017363Y011180D01*
X016763Y011780D01*
X016122Y011780D01*
X016114Y011772D01*
X016823Y012200D02*
X017123Y011900D01*
X018383Y011900D01*
X018503Y012020D01*
X018985Y012020D01*
X018993Y012027D01*
X018984Y011780D02*
X018993Y011772D01*
X018984Y011780D02*
X018263Y011780D01*
X017483Y011000D01*
X017483Y008120D01*
X018323Y007280D01*
X018843Y007280D01*
X019043Y007080D01*
X019043Y006460D01*
X018843Y006260D01*
X018263Y006260D01*
X018178Y006345D01*
X018178Y006520D01*
X017928Y006520D02*
X017928Y006235D01*
X018023Y006140D01*
X018903Y006140D01*
X019163Y006400D01*
X019163Y007140D01*
X018903Y007400D01*
X018383Y007400D01*
X017603Y008180D01*
X017603Y010460D01*
X018623Y011540D01*
X018968Y011540D01*
X018993Y011516D01*
X018993Y011260D02*
X018973Y011240D01*
X018563Y011240D01*
X017723Y010400D01*
X017723Y008240D01*
X018443Y007520D01*
X018963Y007520D01*
X019283Y007200D01*
X019283Y006340D01*
X018963Y006020D01*
X017783Y006020D01*
X017678Y006125D01*
X017678Y006520D01*
X017428Y006520D02*
X017428Y006075D01*
X017603Y005900D01*
X019023Y005900D01*
X019403Y006280D01*
X019403Y007260D01*
X019023Y007640D01*
X018503Y007640D01*
X017843Y008300D01*
X017843Y010280D01*
X018563Y011000D01*
X018989Y011000D01*
X018993Y011004D01*
X018981Y010760D02*
X018993Y010748D01*
X018981Y010760D02*
X018563Y010760D01*
X017963Y010160D01*
X017963Y008360D01*
X018563Y007760D01*
X019083Y007760D01*
X019523Y007320D01*
X019523Y006220D01*
X019083Y005780D01*
X017543Y005780D01*
X017178Y006145D01*
X017178Y006520D01*
X016928Y006520D02*
X016928Y006215D01*
X017483Y005660D01*
X019143Y005660D01*
X019643Y006160D01*
X019643Y007380D01*
X019143Y007880D01*
X018623Y007880D01*
X018083Y008420D01*
X018083Y009920D01*
X018623Y010460D01*
X018961Y010460D01*
X018993Y010492D01*
X018993Y010236D02*
X018977Y010220D01*
X018623Y010220D01*
X018203Y009800D01*
X018203Y008480D01*
X018683Y008000D01*
X019203Y008000D01*
X019763Y007440D01*
X019763Y006100D01*
X019203Y005540D01*
X017423Y005540D01*
X016678Y006285D01*
X016678Y006520D01*
X016428Y006520D02*
X016428Y006235D01*
X016523Y006140D01*
X016643Y006140D01*
X017363Y005420D01*
X019263Y005420D01*
X019883Y006040D01*
X019883Y007500D01*
X019263Y008120D01*
X018743Y008120D01*
X018323Y008540D01*
X018323Y009620D01*
X018683Y009980D01*
X018992Y009980D01*
X018993Y009980D01*
X018993Y009468D02*
X019021Y009440D01*
X018803Y008840D02*
X018803Y008660D01*
X020363Y008240D02*
X020483Y008240D01*
X020603Y008120D01*
X020603Y007880D01*
X020553Y010750D02*
X020543Y010760D01*
X020543Y012740D02*
X020423Y012920D01*
X019910Y014152D02*
X019963Y014205D01*
X019703Y014540D02*
X019583Y014420D01*
X019407Y014420D01*
X019395Y014408D01*
X019703Y014540D02*
X020483Y014540D01*
X020783Y014240D01*
X020523Y014870D02*
X020518Y014875D01*
X019963Y014875D02*
X019918Y014920D01*
X020124Y016096D02*
X020153Y016155D01*
X019134Y016096D02*
X019043Y016125D01*
X019106Y016580D02*
X019134Y016608D01*
X018027Y015580D02*
X018007Y015560D01*
X017352Y016096D02*
X016888Y016096D01*
X016992Y016352D02*
X016793Y016550D01*
X016793Y017986D01*
X016859Y017920D01*
X016793Y017986D02*
X016793Y018410D01*
X016343Y018860D01*
X015863Y018860D01*
X015683Y018680D01*
X015683Y018500D01*
X015323Y018140D01*
X015863Y018860D02*
X015683Y019040D01*
X015683Y019302D01*
X015687Y019306D01*
X015683Y019310D01*
X015683Y019580D01*
X015743Y019640D01*
X015743Y020210D01*
X015473Y020480D01*
X014903Y020480D01*
X015263Y020900D02*
X012623Y020900D01*
X012383Y020660D01*
X012383Y020000D01*
X012623Y019760D01*
X012623Y018560D01*
X012743Y018440D01*
X013163Y018440D01*
X013223Y018500D01*
X013223Y019040D01*
X013203Y019060D01*
X013203Y019572D02*
X012991Y019572D01*
X013163Y019580D02*
X013283Y019580D01*
X013211Y019820D02*
X013203Y019828D01*
X013211Y019820D02*
X013523Y019820D01*
X013583Y019760D01*
X013583Y017420D01*
X014303Y017060D02*
X014543Y017300D01*
X016163Y017300D01*
X016313Y017150D01*
X016313Y016400D01*
X016163Y016250D01*
X016163Y016010D01*
X016343Y015830D01*
X016343Y015440D01*
X016883Y014900D01*
X017112Y014900D01*
X017131Y014920D01*
X017131Y015176D02*
X017123Y015200D01*
X016848Y015476D01*
X016788Y015476D01*
X016528Y015015D02*
X016883Y014660D01*
X017128Y014660D01*
X017131Y014664D01*
X017119Y014420D02*
X016883Y014420D01*
X016538Y014765D01*
X016138Y014765D01*
X016138Y015015D02*
X016528Y015015D01*
X016019Y015570D02*
X015983Y015696D01*
X015507Y015570D02*
X015487Y015620D01*
X015323Y015140D02*
X015203Y015020D01*
X015203Y014420D01*
X014298Y013515D01*
X013868Y013515D01*
X013868Y013265D02*
X012878Y013265D01*
X011333Y014810D01*
X010883Y014810D01*
X010643Y015050D01*
X010643Y018290D01*
X010793Y018440D01*
X011273Y018440D01*
X011413Y018300D01*
X011413Y017700D01*
X011393Y017720D01*
X011393Y017930D01*
X011423Y017960D01*
X011423Y018320D01*
X011543Y018440D01*
X012143Y018440D01*
X012503Y018800D01*
X012503Y019700D01*
X012375Y019828D01*
X012100Y019828D01*
X012083Y019340D02*
X012173Y019310D01*
X012120Y019316D01*
X012100Y019316D01*
X012077Y019340D01*
X012100Y019316D02*
X012064Y019280D01*
X012100Y019060D02*
X012100Y018867D01*
X012050Y018817D01*
X011800Y018817D01*
X011723Y018740D01*
X011283Y019775D02*
X011289Y019895D01*
X011289Y019835D01*
X010168Y019105D02*
X010153Y019120D01*
X011363Y017060D02*
X010943Y016640D01*
X010943Y015730D01*
X010913Y015700D01*
X012413Y015700D02*
X012413Y016370D01*
X012773Y016730D01*
X013583Y016730D01*
X014303Y017060D02*
X011363Y017060D01*
X013247Y015900D02*
X013343Y015804D01*
X013868Y015035D02*
X013868Y015015D01*
X013868Y014515D02*
X013843Y014510D01*
X013863Y014510D02*
X013868Y014515D01*
X013343Y014510D02*
X013209Y014285D01*
X013298Y014285D01*
X013223Y014300D01*
X013209Y014285D02*
X013203Y014345D01*
X013178Y014015D02*
X013043Y013880D01*
X013178Y014015D02*
X013868Y014015D01*
X012638Y014345D02*
X012623Y014330D01*
X014573Y015140D02*
X014573Y015290D01*
X014663Y015380D01*
X014663Y016235D01*
X014664Y016235D01*
X014920Y016235D02*
X014933Y016161D01*
X015173Y016207D02*
X015176Y016235D01*
X016283Y017900D02*
X016303Y017920D01*
X016347Y017920D01*
X017097Y017460D02*
X017183Y017540D01*
X017183Y017120D02*
X017543Y017120D01*
X017633Y017240D01*
X017633Y017436D01*
X017609Y017460D01*
X017603Y017466D01*
X017603Y017720D01*
X017699Y017816D01*
X017699Y018164D01*
X016583Y019280D01*
X015969Y019280D01*
X015943Y019306D01*
X015943Y020220D01*
X015263Y020900D01*
X015298Y020020D02*
X015298Y019855D01*
X014664Y019306D02*
X014663Y019306D01*
X016223Y019640D02*
X016583Y019280D01*
X017183Y017120D02*
X017003Y016940D01*
X017003Y016700D01*
X017096Y016608D01*
X017352Y016608D01*
X017352Y016352D02*
X016992Y016352D01*
X017119Y014420D02*
X017131Y014408D01*
X017131Y014152D02*
X017099Y014150D01*
X016823Y013700D02*
X016823Y012200D01*
X017289Y012185D02*
X017303Y012200D01*
X017349Y012620D02*
X017303Y012680D01*
X016823Y013700D02*
X016508Y014015D01*
X016138Y014015D01*
X015503Y014000D02*
X015443Y014000D01*
X012383Y011120D02*
X012383Y007880D01*
X014003Y006260D01*
X014423Y006260D01*
X014423Y006515D01*
X014428Y006520D01*
X014663Y006505D02*
X014663Y006140D01*
X013943Y006140D01*
X012263Y007820D01*
X012263Y010940D01*
X011688Y011516D01*
X011114Y011516D01*
X011114Y011772D02*
X011732Y011772D01*
X012383Y011120D01*
X012143Y010760D02*
X012143Y007760D01*
X013883Y006020D01*
X014903Y006020D01*
X014933Y006050D01*
X014933Y006455D01*
X014928Y006520D01*
X014678Y006520D02*
X014663Y006505D01*
X015173Y006465D02*
X015173Y006110D01*
X014963Y005900D01*
X013823Y005900D01*
X012023Y007700D01*
X012023Y010520D01*
X011539Y011004D01*
X011114Y011004D01*
X011114Y011260D02*
X011644Y011260D01*
X012143Y010760D01*
X011903Y010340D02*
X011903Y007640D01*
X013763Y005780D01*
X015023Y005780D01*
X015443Y006200D01*
X015443Y006505D01*
X015428Y006520D01*
X015178Y006520D02*
X015173Y006465D01*
X015678Y006520D02*
X015683Y006515D01*
X015683Y006260D01*
X015083Y005660D01*
X013703Y005660D01*
X011783Y007580D01*
X011783Y010160D01*
X011451Y010492D01*
X011114Y010492D01*
X011114Y010236D02*
X011467Y010236D01*
X011663Y010040D01*
X011663Y007520D01*
X013643Y005540D01*
X015143Y005540D01*
X015923Y006320D01*
X015923Y006515D01*
X015928Y006520D01*
X016163Y006505D02*
X016178Y006520D01*
X016163Y006505D02*
X016163Y006260D01*
X016043Y006140D01*
X015923Y006140D01*
X015203Y005420D01*
X013583Y005420D01*
X011543Y007460D01*
X011543Y009920D01*
X011483Y009980D01*
X011114Y009980D01*
X011114Y009468D02*
X010732Y009468D01*
X010643Y009380D01*
X010643Y009080D01*
X010763Y008960D01*
X010883Y008960D01*
X010943Y008900D01*
X010943Y008360D01*
X010763Y008180D01*
X010763Y007037D01*
X010735Y007008D01*
X010943Y007340D02*
X011183Y007100D01*
X011183Y006800D01*
X011174Y006791D01*
X010943Y007340D02*
X010943Y008120D01*
X011114Y008291D01*
X011114Y009213D01*
X011903Y010340D02*
X011495Y010748D01*
X011114Y010748D01*
X010588Y013301D02*
X010627Y013340D01*
X014663Y006985D02*
X014678Y006970D01*
X015683Y006560D02*
X015683Y006515D01*
X012803Y020090D02*
X012803Y020570D01*
D25*
X012803Y020090D02*
X012803Y019700D01*
X012923Y019580D01*
X013163Y019580D01*
X013283Y019580D02*
X012991Y019572D01*
X012900Y019316D02*
X012803Y019220D01*
X012803Y018813D01*
X012900Y018716D01*
X012900Y019316D02*
X013203Y019316D01*
X013883Y019400D02*
X013883Y019700D01*
X013883Y019400D02*
X013969Y019306D01*
X014152Y019306D01*
X014408Y019306D01*
X014664Y019306D01*
X014663Y019306D02*
X014663Y019580D01*
X014723Y019640D01*
X015083Y019640D01*
X015298Y019855D01*
X015176Y019306D02*
X014920Y019306D01*
X014920Y018664D01*
X015176Y019306D02*
X015432Y019306D01*
X014629Y020020D02*
X014163Y020020D01*
X012173Y019310D02*
X011753Y019310D01*
X011633Y019430D01*
X011633Y019670D01*
X011513Y019790D01*
X011299Y019790D01*
X011283Y019775D01*
X011289Y019895D02*
X011273Y019910D01*
X011273Y020270D01*
X014603Y017000D02*
X016013Y017000D01*
X015863Y017900D02*
X016283Y017900D01*
X017183Y017772D02*
X017183Y017540D01*
X017183Y017772D02*
X017367Y017956D01*
X017369Y016880D02*
X017352Y016863D01*
X017369Y016880D02*
X017633Y016880D01*
X017783Y016730D01*
X017783Y016190D01*
X017689Y016096D01*
X017352Y016096D01*
X016943Y015800D02*
X017183Y015560D01*
X018007Y015560D01*
X018539Y015580D02*
X018539Y016376D01*
X018743Y016580D01*
X019106Y016580D01*
X019044Y016366D02*
X019134Y016352D01*
X019044Y016366D02*
X019043Y016125D01*
X019043Y015020D01*
X019144Y014920D01*
X019395Y014920D01*
X019918Y014920D01*
X019963Y014875D02*
X020518Y014875D01*
X020523Y014870D02*
X020753Y014870D01*
X021143Y014480D01*
X021143Y012620D01*
X020843Y012320D01*
X020423Y012320D01*
X020123Y012620D01*
X020123Y012980D01*
X019719Y013384D01*
X019395Y013384D01*
X019395Y014152D02*
X019910Y014152D01*
X019963Y014205D02*
X020398Y014205D01*
X019395Y014664D02*
X019099Y014664D01*
X018923Y014840D01*
X017933Y014840D01*
X017603Y014510D01*
X017603Y014503D01*
X017645Y014522D01*
X018263Y013880D02*
X018443Y014060D01*
X018443Y014120D01*
X018263Y013880D02*
X018263Y013250D01*
X018018Y013005D01*
X018018Y012620D01*
X017303Y012680D02*
X017303Y012200D01*
X016114Y009724D02*
X015729Y009724D01*
X015593Y009860D01*
X015203Y009860D01*
X014843Y009500D01*
X013993Y009150D02*
X013993Y008791D01*
X013993Y009150D02*
X013943Y009200D01*
X013883Y009200D01*
X013813Y006970D02*
X014178Y006970D01*
X014178Y006520D01*
X011114Y009724D02*
X010539Y009724D01*
X010403Y009860D01*
X010403Y010460D01*
X010696Y012027D02*
X010163Y012560D01*
X010163Y013520D01*
X010643Y014000D01*
X011603Y014000D01*
X012203Y013400D01*
X012503Y013400D01*
X012838Y013065D01*
X012838Y012760D01*
X013223Y012260D02*
X012383Y012260D01*
X012169Y012475D01*
X012169Y012760D01*
X012863Y013520D02*
X012623Y013760D01*
X012623Y014330D01*
X012638Y014345D02*
X013203Y014345D01*
X013343Y014510D02*
X013843Y014510D01*
X013863Y014510D02*
X014213Y014510D01*
X014363Y014660D01*
X014363Y014900D01*
X014248Y015015D01*
X013868Y015015D01*
X013868Y015035D02*
X013853Y015050D01*
X013853Y015320D01*
X013763Y015410D01*
X013343Y015410D01*
X013247Y015506D01*
X013247Y015900D01*
X013759Y015900D02*
X014043Y015900D01*
X014153Y016010D01*
X014153Y016236D01*
X014152Y016235D01*
X014152Y016549D01*
X014603Y017000D01*
X014933Y016161D02*
X014933Y015620D01*
X015487Y015620D01*
X015263Y015890D02*
X015173Y015980D01*
X015173Y016207D01*
X015263Y015890D02*
X015953Y015890D01*
X015983Y015860D01*
X015983Y015696D01*
X016463Y015980D02*
X016643Y015800D01*
X016943Y015800D01*
X016463Y015980D02*
X016463Y016100D01*
X014933Y015620D02*
X014933Y014690D01*
X014508Y014265D01*
X013868Y014265D01*
X013868Y013765D02*
X013468Y013765D01*
X013223Y013520D01*
X012863Y013520D01*
X013343Y012800D02*
X013343Y012380D01*
X013223Y012260D01*
X011114Y012027D02*
X010696Y012027D01*
X012678Y014775D02*
X012678Y014955D01*
X012803Y015080D01*
X013138Y015080D01*
X013283Y014900D02*
X013418Y014765D01*
X013868Y014765D01*
X019134Y016096D02*
X020124Y016096D01*
X020153Y016825D02*
X020153Y017150D01*
X020003Y017300D01*
X019823Y017300D01*
X019331Y009213D02*
X018993Y009213D01*
X019331Y009213D02*
X019403Y009140D01*
X019403Y008960D01*
X019631Y008733D01*
X018753Y006970D02*
X018428Y006970D01*
X018428Y006520D01*
D26*
X010403Y010460D03*
D27*
X010419Y007326D03*
X010735Y007008D03*
X011174Y006791D03*
X011243Y007580D03*
X013813Y006970D03*
X014678Y008464D03*
X013993Y008791D03*
X014843Y009500D03*
X015276Y009093D03*
X015532Y009468D03*
X015203Y010220D03*
X014843Y011720D03*
X015529Y011806D03*
X016523Y012680D03*
X017289Y012185D03*
X015503Y014000D03*
X015503Y014600D03*
X015323Y015140D03*
X014573Y015140D03*
X013583Y016730D03*
X013583Y017420D03*
X012900Y018716D03*
X013883Y019700D03*
X014163Y020020D03*
X014903Y020480D03*
X016223Y019640D03*
X014920Y018664D03*
X015323Y018140D03*
X015863Y017900D03*
X016013Y017000D03*
X016463Y016100D03*
X016888Y016096D03*
X016788Y015476D03*
X017645Y014522D03*
X018443Y014120D03*
X020398Y014205D03*
X020518Y014875D03*
X020783Y013220D03*
X020543Y012740D03*
X020553Y010750D03*
X019631Y008733D03*
X018803Y008840D03*
X020123Y007880D03*
X020603Y007880D03*
X021083Y007880D03*
X018753Y006970D03*
X015683Y008600D03*
X011603Y012260D03*
X011663Y013340D03*
X011603Y014000D03*
X012638Y014345D03*
X013043Y013880D03*
X012678Y014775D03*
X013343Y012800D03*
X017367Y017956D03*
X019823Y017300D03*
X012803Y020570D03*
X011273Y020270D03*
X011723Y018740D03*
D28*
X011283Y019105D02*
X010168Y019105D01*
X010588Y013301D02*
X010588Y012840D01*
X011139Y013340D02*
X011663Y013340D01*
X016138Y013265D02*
X016138Y013065D01*
X016523Y012680D01*
D29*
X016623Y012580D01*
X016623Y012200D01*
X016451Y012027D01*
X016114Y012027D01*
X015203Y010220D02*
X015203Y009860D01*
X011603Y012260D02*
X011603Y012680D01*
X011483Y012800D01*
X011219Y012800D01*
X011179Y012840D01*
X013283Y014900D02*
X013283Y014935D01*
X013203Y015015D01*
X013138Y015080D01*
D30*
X016138Y013765D02*
X016138Y013515D01*
M02*
